<svg xmlns="http://www.w3.org/2000/svg" viewBox="0 0 289.6 90.4"><circle fill="#FFF" cx="217.6" cy="16.4" r="15.9"/><circle fill="#FFF" cx="73" cy="15.8" r="15.8"/><path fill="#FFF" d="M83.6 25.8h1.7c-2.9 3.6-7.3 5.9-12.3 5.9-8.7 0-15.8-7.1-15.8-15.8 0-1.3.2-2.5.4-3.7l8.2 2s-.7 2.5-.9 3.7c-.1.9-.3 2.8-.1 3.2 1.2-1.5 4.4-2.3 8.2-2.3s7.1.7 8.2 2.3c.1-.4 0-2-.1-3.2-.2-1.2-.9-3.6-.9-3.6l4.3-1.1v5h-.1c-.3 0-.8 5.2-.8 5.5v2.1zM57.8 11.5C59.7 4.9 65.8 0 73 0s13.3 4.9 15.2 11.5L73 9.6l-15.2 1.9zm30.5.6c.3 1.2.5 2.5.5 3.7 0 3.3-1 6.4-2.8 8.9v-1.1c0-.4-.6-5.5-.8-5.5h-.1v-5.3l3.2-.7z"/><ellipse fill="#FFF" cx="120.8" cy="15.8" rx="15.7" ry="15.8"/><circle fill="#FFF" cx="169.1" cy="16" r="15.7"/><path fill="#FFF" d="M208.3 17l-5.1 6.4s0-.1-.1-.1c-.1-.2-.2-.5-.3-.7-.1-.3-.2-.5-.3-.8-.6-1.7-.9-3.5-.9-5.3 0-4.4 1.8-8.4 4.7-11.3.7-.7 1.5-1.4 2.4-1.9.4-.3.8-.5 1.3-.8 2.3-1.2 4.8-1.9 7.6-1.9 3.9 0 7.4 1.4 10.2 3.7h-.1l-7.5.8 2.9 2.3c-1.5 1.9-5.1 6.6-5.8 7.4-1.1.1-9 2.2-9 2.2zm25.2-.6c0 8.8-7.1 16-15.9 16-4.7 0-8.9-2-11.8-5.2V27l.2-.2c.1-.2.3-.4.5-.6.1-.1.2-.3.3-.4.3-.4.6-.7.9-1.1.8-1.1 1.8-2.2 2.4-3 .1-.1.1-.2.2-.2.1-.2.2-.3.3-.4 0-.1.1-.1.1-.1 1.2-.3 9.1-2.3 9.1-2.3l6.7-8.5 2.6 2.1-.8-7.4v-.1c3.2 2.7 5.2 6.9 5.2 11.6z"/><path d="M9.9 58.4v3.5H13v2.8c-.7.4-1.9.8-3.6.8-3.2 0-5.3-2.3-5.3-5.5s2.1-5.5 5.3-5.5c1.9 0 3.2.6 4.2 1.6l2.7-2.9c-1.7-1.6-4.1-2.2-6.8-2.2-5.3 0-9.2 3.5-9.2 9s3.9 9 9.2 9c2.5 0 5-.5 7.2-1.6v-9H9.9zm16.6-1.9c-1.6 0-2.6.8-3.4 2.2v-1.9h-3.6v11.8h3.6v-4.9c0-2.3.3-4 3.1-4 .5 0 1.1.1 1.6.2v-3.3c-.4-.1-.9-.1-1.3-.1zM41 62.7c0-3.8-2.1-6.2-5.5-6.2-3.6 0-6.5 2.4-6.5 6.2 0 3.8 2.9 6.2 6.5 6.2 1.9 0 3.8-.9 5-2.3L38 64.7c-.6.8-1.4 1.4-2.6 1.4-1.4 0-2.4-.9-2.7-2.3H41v-1.1zm-8.4-1.4c.1-1.1 1-2.2 2.6-2.2 1.3 0 2.3 1 2.2 2.2h-4.8zm16-4.8c-1.9 0-3.9.6-5.2 1.9l1.9 2c.8-.9 1.8-1.4 2.9-1.4 1.3 0 2.3.8 2.3 2.1-3 0-8 .1-8 4.2 0 2.4 2 3.6 4.2 3.6 1.5 0 2.9-.5 3.7-1.8v1.5h3.3v-6c.2-3.9-.9-6.1-5.1-6.1zm2 7.7c0 1.5-1.3 2.2-2.8 2.2-.8 0-1.7-.4-1.7-1.3 0-1.6 2.5-1.7 3.6-1.7h.9v.8zm13.6-4.5v-2.9H61v-3.5h-3.6v3.5h-2.3v2.9h2.3v5.6c0 2.6 1.9 3.6 4.3 3.6.9 0 1.7-.1 2.5-.4v-3c-.3.3-1.1.3-1.5.3-1.6 0-1.7-.9-1.7-2.2v-3.9h3.2zm13.6 3c0-3.8-2.1-6.2-5.5-6.2-3.6 0-6.5 2.4-6.5 6.2 0 3.8 2.9 6.2 6.5 6.2 1.9 0 3.8-.9 5-2.3l-2.5-1.9c-.6.8-1.4 1.4-2.6 1.4-1.4 0-2.4-.9-2.7-2.3h8.4v-1.1zm-8.5-1.4c.1-1.1 1-2.2 2.6-2.2 1.3 0 2.2 1 2.2 2.2h-4.8zM87 56.5c-1.6 0-2.6.8-3.4 2.2v-1.9H80v11.8h3.6v-4.9c0-2.3.3-4 3.1-4 .5 0 1 .1 1.6.2v-3.3c-.4-.1-.9-.1-1.3-.1zm14.4 8.6V51.4h-3.8v17.2h10.8v-3.5h-7zm14.7-8.6c-3.6 0-6.5 2.4-6.5 6.2 0 3.8 2.9 6.2 6.5 6.2s6.5-2.4 6.5-6.2c0-3.8-2.9-6.2-6.5-6.2zm0 9.2c-1.8 0-2.9-1.2-2.9-3s1.1-3 2.9-3c1.8 0 2.9 1.2 2.9 3 0 1.7-1.1 3-2.9 3zm16.4-8.9v5.9c0 1.5-.3 3-2.2 3-1.9 0-1.9-1.7-1.9-3.1v-5.8h-3.6v6.5c0 3.1.7 5.6 4.4 5.6 1.8 0 3-1 3.4-1.9v1.6h3.5V56.8h-3.6zm6.2 0v11.8h3.6V56.8h-3.6zm1.8-5.8c-1.2 0-2.1 1-2.1 2.1 0 1.2 1 2.1 2.1 2.1 1.2 0 2.1-.9 2.1-2.1 0-1.2-.9-2.1-2.1-2.1zm7.7 9.2c0-.7.7-1 1.3-1 .9 0 1.6.3 2.1 1l2.2-2.2c-1.1-1.2-2.8-1.5-4.4-1.5-2.5 0-4.9 1.2-4.9 4 0 4.5 6.1 2.9 6.1 4.8 0 .6-.8.8-1.6.8-1.1 0-1.9-.5-2.6-1.3l-2.2 2.4c1.2 1.2 3 1.6 4.6 1.6 2.5 0 5.4-.9 5.4-3.9.1-4.4-6-2.9-6-4.7zm16.4-3.4l-2.8 8h-.1l-3-8h-3.9l4.9 11.8h3.9l4.6-11.8h-3.6zm5.1 0v11.8h3.6V56.8h-3.6zm1.8-5.8c-1.2 0-2.1 1-2.1 2.1 0 1.2.9 2.1 2.1 2.1 1.2 0 2.1-.9 2.1-2.1 0-1.2-1-2.1-2.1-2.1zm4.5-.8v18.3h3.6V50.2H176zm6.3 0v18.3h3.6V50.2h-3.6zm17.9 12.5c0-3.8-2.1-6.2-5.5-6.2-3.6 0-6.5 2.4-6.5 6.2 0 3.8 2.9 6.2 6.5 6.2 1.9 0 3.8-.9 5-2.3l-2.5-1.9c-.6.8-1.4 1.4-2.6 1.4-1.4 0-2.4-.9-2.7-2.3h8.4v-1.1zm-8.4-1.4c.1-1.1 1-2.2 2.6-2.2 1.3 0 2.3 1 2.2 2.2h-4.8zm24.6-9.9H210v17.2h3.8v-6.7h2.8c3.6 0 6.3-1.2 6.3-5.3s-2.9-5.2-6.5-5.2zm-.1 7.3h-2.5v-4.1h1.9c1.4 0 3.2.2 3.2 2 .1 1.6-1.2 2.1-2.6 2.1zm15.6-2.2c-1.6 0-2.6.8-3.4 2.2v-1.9h-3.6v11.8h3.6v-4.9c0-2.3.3-4 3.1-4 .5 0 1 .1 1.5.2v-3.3c-.3-.1-.8-.1-1.2-.1zm8.9 0c-3.6 0-6.5 2.4-6.5 6.2 0 3.8 2.9 6.2 6.5 6.2s6.5-2.4 6.5-6.2c0-3.8-2.9-6.2-6.5-6.2zm0 9.2c-1.8 0-2.9-1.2-2.9-3s1.1-3 2.9-3c1.8 0 2.9 1.2 2.9 3 0 1.7-1.1 3-2.9 3zM251.3 51c-1.2 0-2.1 1-2.1 2.1 0 1.2.9 2.1 2.1 2.1 1.2 0 2.1-.9 2.1-2.1 0-1.2-.9-2.1-2.1-2.1zm-1.8 5.8v12c0 .9 0 2.4-1.3 2.4-.3 0-.6-.1-.9-.2l-.2 3.2c.5.2 1.1.2 1.7.2 3.3 0 4.4-1.9 4.4-5V56.8h-3.7zm17.9 5.9c0-3.8-2.1-6.2-5.5-6.2-3.6 0-6.5 2.4-6.5 6.2 0 3.8 2.9 6.2 6.5 6.2 1.9 0 3.8-.9 5-2.3l-2.5-1.9c-.6.8-1.4 1.4-2.6 1.4-1.4 0-2.4-.9-2.7-2.3h8.4v-1.1zm-8.4-1.4c.1-1.1 1-2.2 2.6-2.2 1.3 0 2.2 1 2.2 2.2H259zm16.8 4.4c-1.8 0-2.9-1.2-2.9-3s1.1-3 2.9-3c.7 0 1.4.4 1.8.9l2.4-2.5c-1.1-1.2-2.8-1.6-4.2-1.6-3.6 0-6.5 2.4-6.5 6.2 0 3.8 2.9 6.2 6.5 6.2 1.4 0 3.1-.4 4.2-1.6l-2.4-2.5c-.4.4-1 .9-1.8.9zm13.5-6v-2.9h-3.2v-3.5h-3.6v3.5h-2.3v2.9h2.3v5.6c0 2.6 1.9 3.6 4.3 3.6.8 0 1.7-.1 2.6-.4v-3c-.3.3-1.1.3-1.5.3-1.6 0-1.7-.9-1.7-2.2v-3.9h3.1zM4.9 80.3H3.4L0 90.2h1.3l1-3.1h3.5L7 90.2h1.4l-3.5-9.9zm-2.3 5.8l1-2.9c.2-.6.4-1.2.5-1.8.2.6.3 1.2.5 1.8l1 2.9h-3zm17.1-4.7c-.9-.8-2.2-1.2-4-1.2-1 0-1.9.1-2.8.2v9.8c.7.1 1.4.1 2.4.1 1.9 0 3.5-.5 4.4-1.4.9-.9 1.4-2.3 1.4-3.9s-.5-2.8-1.4-3.6zm-4.2 7.9c-.5 0-1 0-1.3-.1v-7.9c.3-.1.8-.1 1.5-.1 2.7 0 4.1 1.5 4 3.9.1 2.7-1.4 4.2-4.2 4.2zm16.2-9L30 85.2c-.5 1.3-.9 2.6-1.1 3.7-.3-1.2-.7-2.4-1.1-3.7l-1.6-4.9h-1.4l3.3 10h1.4l3.6-10h-1.4zm8.9 0H39l-3.4 10H37l1-3.1h3.5l1.1 3.1H44l-3.4-10zm-2.3 5.8l1-2.9c.2-.6.4-1.2.5-1.8h.1c.1.6.3 1.2.5 1.8l1 2.9h-3.1zm16.6-5.8v4.2c0 1.5 0 2.8.1 4.1-.5-1-1.1-2.1-1.8-3.2L50 80.3h-1.4v10h1.2V86c0-1.7 0-2.9-.1-4.1h.1c.5 1.1 1.1 2.2 1.8 3.3l3.2 5.1h1.3v-10h-1.2zm11.1 9c-2.4 0-3.8-1.6-3.8-4 0-2.6 1.6-4.1 3.9-4.1.8 0 1.5.2 2 .4l.3-1.1c-.3-.2-1.1-.4-2.4-.4-3.1 0-5.2 2.1-5.2 5.2 0 3.3 2.1 5.1 4.9 5.1 1.2 0 2.2-.2 2.6-.5l-.2-1c-.5.2-1.3.4-2.1.4zm7.1-9v10h1.3v-10h-1.3zm13 0v4.2c0 1.5 0 2.8.1 4.1h-.1c-.4-1-1-2.1-1.8-3.2l-3.2-5.1h-1.4v10H81V86c0-1.7 0-2.9-.1-4.1.5 1.1 1.2 2.2 1.9 3.3l3.2 5.1h1.3v-10h-1.2zM97 85v1h2v3c-.3.2-.9.3-1.7.3-2.3 0-3.9-1.5-3.9-4s1.6-4 4-4c1 0 1.7.2 2.2.4l.3-1.1c-.4-.2-1.3-.5-2.5-.5-3.3 0-5.4 2.2-5.4 5.2 0 1.6.5 2.9 1.4 3.7 1 .9 2.2 1.3 3.7 1.3 1.3 0 2.5-.3 3.1-.5V85H97zm18.8-4.7h-1.6l-3.4 10h1.3l1-3.1h3.5l1.1 3.1h1.4l-3.3-10zm-2.4 5.8l1-2.9c.2-.6.4-1.2.5-1.8h.1c.2.6.3 1.2.5 1.8l1 2.9h-3.1zm21.2 3.2c-2.4 0-3.8-1.6-3.8-4 0-2.6 1.6-4.1 3.9-4.1.8 0 1.5.2 2 .4l.3-1.1c-.3-.2-1.1-.4-2.4-.4-3.1 0-5.2 2.1-5.2 5.2 0 3.3 2.1 5.1 4.9 5.1 1.2 0 2.2-.2 2.6-.5l-.3-1c-.4.2-1.2.4-2 .4zm10.8-9.2c-2.7 0-4.6 2.1-4.6 5.2 0 3 1.8 5.1 4.5 5.1 2.5 0 4.6-1.8 4.6-5.3 0-2.9-1.8-5-4.5-5zm-.1 9.3c-2 0-3.2-1.9-3.2-4 0-2.2 1.1-4.2 3.2-4.2s3.2 2.1 3.2 4.1c0 2.2-1.1 4.1-3.2 4.1zm18.7-9.1h-1.6l-1.8 4.8c-.5 1.3-.8 2.4-1.1 3.4-.3-1-.6-2.2-1-3.4l-1.7-4.8h-1.7l-.7 10h1.2l.3-4.3c.1-1.5.2-3.2.2-4.4.3 1.2.7 2.5 1.2 3.9l1.6 4.8h1l1.8-4.8c.5-1.4.9-2.6 1.3-3.8 0 1.2.1 2.9.2 4.3l.2 4.4h1.3l-.7-10.1zm11 .7c-.6-.5-1.5-.8-2.8-.8-1 0-1.8.1-2.5.2v9.9h1.3v-4c.3.1.7.1 1 .1 1.3 0 2.4-.4 3.1-1.1.5-.5.8-1.2.8-2.1-.1-1-.4-1.7-.9-2.2zm-3 4.3c-.4 0-.8 0-1.1-.1v-3.9c.2-.1.7-.1 1.2-.1 1.4 0 2.4.6 2.4 2 0 1.3-.9 2.1-2.5 2.1zm10 3.9v-3.6h3.9v-1.1H182v-3.2h4.1v-1.1h-5.4v10h5.6v-1.1H182zm8.2-8.9v1.1h3v8.9h1.3v-8.9h3.1v-1.1h-7.4zm11.6 0v10h1.3v-10h-1.3zm5.5 0v1.1h3v8.9h1.3v-8.9h3.1v-1.1h-7.4zm11.6 0v10h1.3v-10h-1.3zm12.4 0l-1.7 4.9c-.5 1.3-.9 2.6-1.1 3.7-.3-1.2-.7-2.4-1.1-3.7l-1.5-4.9h-1.4l3.3 10h1.4l3.6-10h-1.5zm6.9 8.9v-3.6h3.9v-1.1h-3.9v-3.2h4.1v-1.1h-5.4v10h5.6v-1.1h-4.3zm19.9.1c-2.4 0-3.8-1.6-3.8-4 0-2.6 1.6-4.1 3.9-4.1.8 0 1.5.2 2 .4l.3-1.1c-.3-.2-1.1-.4-2.4-.4-3.1 0-5.2 2.1-5.2 5.2 0 3.3 2.1 5.1 4.9 5.1 1.2 0 2.2-.2 2.6-.5l-.2-1c-.5.2-1.3.4-2.1.4zm7.1-9v10h1.3v-10h-1.3zm5.6 0v1.1h3v8.9h1.3v-8.9h3.1v-1.1h-7.4zm17.4 0l-1.4 2.8c-.4.8-.7 1.4-1 2.1-.3-.7-.6-1.3-1-2.1l-1.4-2.8h-1.5L285 86v4.2h1.3V86l3.3-5.7h-1.4z" fill="#2D4245"/><path d="M227.7 4.1l-7.5.8 2.9 2.3c-1.5 1.9-5.1 6.6-5.8 7.4-1.2.3-9.1 2.3-9.1 2.3l-5.1 6.4s0-.1-.1-.1c-.1-.2-.2-.5-.3-.7-.1-.3-.2-.5-.3-.8-.6-1.7-.9-3.5-.9-5.3 0-4.4 1.8-8.4 4.7-11.3.7-.7 1.5-1.4 2.4-1.9.4-.3.8-.5 1.3-.8 2.3-1.2 4.8-1.9 7.6-1.9 3.9 0 7.5 1.3 10.2 3.6zm5.8 12.3c0 8.8-7.1 16-15.9 16-4.7 0-8.9-2-11.8-5.2V27l.2-.2c.1-.2.3-.4.5-.6.1-.1.2-.3.3-.4.3-.4.6-.7.9-1.1.8-1.1 1.8-2.2 2.4-3 .1-.1.1-.2.2-.2.1-.2.2-.3.3-.4 0-.1.1-.1.1-.1 1.2-.3 9.1-2.3 9.1-2.3l6.7-8.5 2.6 2.1-.8-7.4v-.1c3.2 2.7 5.2 6.9 5.2 11.6z" fill="#520037"/><path d="M88.2 11.5L73 9.6l-15.2 1.9C59.7 4.9 65.8 0 73 0s13.3 4.9 15.2 11.5zM86 24.7v-1.1c0-.4-.6-5.5-.8-5.5h-.1v-5.3l3.2-.7c.3 1.2.5 2.5.5 3.7 0 3.3-1 6.4-2.8 8.9zm-.7 1.1c-2.9 3.6-7.3 5.9-12.3 5.9-8.7 0-15.8-7.1-15.8-15.8 0-1.3.2-2.5.4-3.7l8.2 2s-.7 2.5-.9 3.7c-.1.9-.3 2.8-.1 3.2 1.2-1.5 4.4-2.3 8.2-2.3s7.1.7 8.2 2.3c.1-.4 0-2-.1-3.2-.2-1.2-.9-3.6-.9-3.6l4.3-1.1v5h-.1c-.3 0-.8 5.2-.8 5.5v2.1h1.7z" fill="#F58021"/><path fill="#00A9B7" d="M120.8 0c-8.7 0-15.7 7.1-15.7 15.8 0 8.7 7 15.8 15.7 15.8s15.7-7 15.7-15.8c0-8.7-7-15.8-15.7-15.8zm.1 7.4c1 0 1.9.8 1.9 1.9 0 1-.8 1.9-1.9 1.9s-1.9-.8-1.9-1.9c0-1 .8-1.9 1.9-1.9zm-8.8 15c-.2 0-.3 0-.4-.2-.2-.2-.2-.6 0-.8l2.6-2.6V16l-2.5-2.5c-.2-.2-.2-.5 0-.6.2-.2.5-.2.6 0l2.6 2.3h1l1.4-.9V17l-1.9 2.2-3 3c-.1.2-.3.2-.4.2zm2.4-9.4c0-.7.5-1.2 1.2-1.2s1.2.5 1.2 1.2-.5 1.2-1.2 1.2-1.2-.5-1.2-1.2zm13 10.9c-.2.2-.4.3-.7.3s-.5-.1-.7-.3l-5.3-5.3-5.3 5.3c-.2.2-.4.3-.7.3-.2 0-.5-.1-.7-.3-.4-.4-.4-1 0-1.4l4.5-4.5v-4.8l-4.4-4.4c-.3-.3-.3-.8 0-1.1.3-.3.8-.3 1.1 0l4.5 4.6h1.8l4.6-4.4c.3-.3.8-.3 1.1 0 .3.3.3.8 0 1.1l-4.4 4.2V18l4.5 4.5c.5.3.5 1 .1 1.4zm-.4-10.9c0 .7-.5 1.2-1.2 1.2s-1.2-.5-1.2-1.2.6-1.2 1.2-1.2c.7 0 1.2.5 1.2 1.2zm2.8 9.3c-.1.1-.3.2-.4.2-.1 0-.3 0-.4-.2l-3-3-1.9-2.2v-2.7l1.4.9h1.1l2.6-2.3c.2-.2.5-.2.6 0 .2.2.2.5 0 .6l-2.5 2.5v2.8l2.6 2.6c.1.2.1.5-.1.8z"/><path fill="#093266" d="M169.1.3c-8.7 0-15.7 7-15.7 15.7s7 15.7 15.7 15.7 15.7-7 15.7-15.7S177.8.3 169.1.3zm10 19.7c-.9.6-2.7.7-3.5-.2.8-.1 2.3-1 2.1-2.4-.1-.5-.6-2-2.5-2-2.3 0-4 3.4-4.3 4.6 1.4 0 1.7 0 1.7.8 0 .9-.6 1.1-2.4 1 .3 1.3 1.7 2.5 3.4 2-.3 1.3-1.9 1.9-3.3 1.3-.1 1.1-.4 2.2-1.2 2.6-.7-.5-1.1-1.4-1.2-2.6-1.4.5-2.9-.1-3.3-1.3 1.7.6 3-.6 3.4-1.9-1.2 0-2.4.1-2.3-1.1.1-.8.4-.8 1.7-.8-.3-1.3-2.1-4.5-3.9-4.6-2.4-.2-2.9 1.7-2.9 2.2 0 1.3.9 2.1 2 2.2-1 1.1-3.2.5-4-.2-.7-.6-1.1-1.7-1-3 .2-2.7 3.9-4.3 6.6-3.1 2.5 1 3.9 3.3 4 6.6h.4c.2-2.9-.7-5-1.4-7.3-.3-1-.6-1.9-.6-3.2.1-1.7 1.1-2.9 1.8-4.1.3-.5.6-.9.7-1.4.5 2 2.3 3.1 2.5 5.5v.6c-.1 2.4-1.4 4.4-1.8 6.7-.2 1-.2 2.1-.2 3.2.1.1.3 0 .5 0 .2-3.2 1.5-5.6 3.9-6.6 2.7-1.2 6.2.3 6.7 2.8.3 1.7-.6 3.1-1.6 3.7z"/></svg>